<svg width="720" height="480" viewBox="0 0 720 480" fill="none" xmlns="http://www.w3.org/2000/svg">
  <rect width="720" height="480" rx="36" fill="#0B1120"/>
  <rect x="44" y="48" width="632" height="384" rx="28" fill="#111827"/>
  <rect x="88" y="104" width="248" height="252" rx="20" fill="#0F172A" stroke="#1E293B" stroke-width="2"/>
  <rect x="112" y="136" width="160" height="14" rx="7" fill="#38BDF8"/>
  <rect x="112" y="164" width="196" height="12" rx="6" fill="#1F2937"/>
  <rect x="112" y="188" width="176" height="12" rx="6" fill="#1F2937"/>
  <rect x="112" y="224" width="180" height="34" rx="17" fill="#22D3EE"/>
  <rect x="112" y="268" width="140" height="10" rx="5" fill="#1F2937"/>
  <rect x="112" y="286" width="120" height="10" rx="5" fill="#1F2937"/>
  <rect x="384" y="104" width="248" height="252" rx="20" fill="#0F172A" stroke="#1E293B" stroke-width="2"/>
  <circle cx="508" cy="182" r="56" fill="#1E3A8A"/>
  <circle cx="508" cy="182" r="38" fill="#0EA5E9"/>
  <path d="M490 182L502 194L526 170" stroke="#0B1120" stroke-width="8" stroke-linecap="round" stroke-linejoin="round"/>
  <rect x="424" y="252" width="168" height="12" rx="6" fill="#1F2937"/>
  <rect x="424" y="272" width="132" height="12" rx="6" fill="#1F2937"/>
  <rect x="424" y="300" width="150" height="32" rx="16" fill="#1E293B"/>
  <rect x="96" y="72" width="96" height="12" rx="6" fill="#38BDF8"/>
  <rect x="204" y="72" width="56" height="12" rx="6" fill="#1E293B"/>
  <rect x="270" y="72" width="56" height="12" rx="6" fill="#1E293B"/>
  <text x="120" y="320" fill="#94A3B8" font-family="Inter, Arial, sans-serif" font-size="12">Workspace key verified</text>
  <text x="424" y="340" fill="#94A3B8" font-family="Inter, Arial, sans-serif" font-size="12">Secure session enabled</text>
</svg>
