<svg width="720" height="420" viewBox="0 0 720 420" fill="none" xmlns="http://www.w3.org/2000/svg">
  <rect width="720" height="420" rx="32" fill="#0B1120"/>
  <rect x="60" y="60" width="600" height="300" rx="28" fill="#111827"/>
  <rect x="108" y="110" width="220" height="18" rx="9" fill="#38BDF8"/>
  <rect x="108" y="144" width="176" height="12" rx="6" fill="#1F2937"/>
  <rect x="108" y="168" width="196" height="12" rx="6" fill="#1F2937"/>
  <rect x="108" y="224" width="200" height="36" rx="18" fill="#22D3EE"/>
  <rect x="326" y="224" width="140" height="36" rx="18" fill="#1E293B"/>
  <rect x="430" y="128" width="180" height="160" rx="24" fill="#0F172A" stroke="#1E293B" stroke-width="2"/>
  <circle cx="520" cy="170" r="42" fill="#1E3A8A"/>
  <circle cx="520" cy="170" r="30" fill="#0EA5E9"/>
  <path d="M508 170L518 180L534 160" stroke="#0B1120" stroke-width="6" stroke-linecap="round" stroke-linejoin="round"/>
  <rect x="458" y="222" width="124" height="10" rx="5" fill="#1F2937"/>
  <rect x="458" y="242" width="96" height="10" rx="5" fill="#1F2937"/>
  <path d="M170 80L194 80" stroke="#38BDF8" stroke-width="6" stroke-linecap="round"/>
  <path d="M206 80L230 80" stroke="#1E293B" stroke-width="6" stroke-linecap="round"/>
  <path d="M242 80L266 80" stroke="#1E293B" stroke-width="6" stroke-linecap="round"/>
  <path d="M560 310C584 286 612 274 644 274" stroke="#1E3A8A" stroke-width="12" stroke-linecap="round"/>
</svg>
