<svg width="720" height="420" viewBox="0 0 720 420" fill="none" xmlns="http://www.w3.org/2000/svg">
  <rect width="720" height="420" rx="32" fill="#0B1120"/>
  <rect x="48" y="52" width="624" height="316" rx="24" fill="#111827"/>
  <rect x="84" y="92" width="216" height="16" rx="8" fill="#38BDF8"/>
  <rect x="84" y="120" width="140" height="12" rx="6" fill="#1E293B"/>
  <rect x="84" y="168" width="552" height="6" rx="3" fill="#1F2937"/>
  <rect x="84" y="188" width="408" height="6" rx="3" fill="#1F2937"/>
  <rect x="84" y="208" width="480" height="6" rx="3" fill="#1F2937"/>
  <rect x="84" y="236" width="372" height="6" rx="3" fill="#1F2937"/>
  <rect x="84" y="256" width="520" height="6" rx="3" fill="#1F2937"/>
  <rect x="84" y="276" width="310" height="6" rx="3" fill="#1F2937"/>
  <rect x="84" y="320" width="180" height="28" rx="14" fill="#22D3EE"/>
  <rect x="282" y="320" width="140" height="28" rx="14" fill="#1E293B"/>
  <circle cx="560" cy="152" r="62" fill="#1E3A8A"/>
  <circle cx="560" cy="152" r="44" fill="#0EA5E9"/>
  <path d="M538 152L555 169L583 135" stroke="#0B1120" stroke-width="8" stroke-linecap="round" stroke-linejoin="round"/>
  <path d="M486 246C510 220 538 206 570 206C602 206 630 220 654 246" stroke="#1E3A8A" stroke-width="12" stroke-linecap="round"/>
  <path d="M130 64L154 64" stroke="#38BDF8" stroke-width="6" stroke-linecap="round"/>
  <path d="M170 64L194 64" stroke="#1E293B" stroke-width="6" stroke-linecap="round"/>
  <path d="M210 64L234 64" stroke="#1E293B" stroke-width="6" stroke-linecap="round"/>
</svg>
