<svg width="240" height="240" viewBox="0 0 240 240" fill="none" xmlns="http://www.w3.org/2000/svg">
  <rect width="240" height="240" fill="#FFFFFF"/>
  <g opacity="0.18" fill="#6366F1">
    <circle cx="20" cy="20" r="2"/>
    <circle cx="80" cy="20" r="2"/>
    <circle cx="140" cy="20" r="2"/>
    <circle cx="200" cy="20" r="2"/>
    <circle cx="50" cy="50" r="2"/>
    <circle cx="110" cy="50" r="2"/>
    <circle cx="170" cy="50" r="2"/>
    <circle cx="230" cy="50" r="2"/>
    <circle cx="20" cy="90" r="2"/>
    <circle cx="80" cy="90" r="2"/>
    <circle cx="140" cy="90" r="2"/>
    <circle cx="200" cy="90" r="2"/>
    <circle cx="50" cy="130" r="2"/>
    <circle cx="110" cy="130" r="2"/>
    <circle cx="170" cy="130" r="2"/>
    <circle cx="230" cy="130" r="2"/>
    <circle cx="20" cy="170" r="2"/>
    <circle cx="80" cy="170" r="2"/>
    <circle cx="140" cy="170" r="2"/>
    <circle cx="200" cy="170" r="2"/>
    <circle cx="50" cy="210" r="2"/>
    <circle cx="110" cy="210" r="2"/>
    <circle cx="170" cy="210" r="2"/>
    <circle cx="230" cy="210" r="2"/>
  </g>
</svg>
