<svg width="20" height="20" viewBox="0 0 20 20" fill="none" xmlns="http://www.w3.org/2000/svg">
  <path d="M8.9 2.9C9.37 1.7 10.63 1.7 11.1 2.9L11.47 3.85C11.66 4.35 12.19 4.66 12.72 4.61L13.73 4.5C15 4.35 15.63 5.43 14.88 6.47L14.28 7.3C13.97 7.73 13.97 8.31 14.28 8.74L14.88 9.57C15.63 10.61 15 11.69 13.73 11.54L12.72 11.43C12.19 11.38 11.66 11.69 11.47 12.19L11.1 13.14C10.63 14.34 9.37 14.34 8.9 13.14L8.53 12.19C8.34 11.69 7.81 11.38 7.28 11.43L6.27 11.54C5 11.69 4.37 10.61 5.12 9.57L5.72 8.74C6.03 8.31 6.03 7.73 5.72 7.3L5.12 6.47C4.37 5.43 5 4.35 6.27 4.5L7.28 4.61C7.81 4.66 8.34 4.35 8.53 3.85L8.9 2.9Z" stroke="#7A88BA" stroke-width="1.4" stroke-linejoin="round"/>
  <circle cx="10" cy="8" r="2" stroke="#7A88BA" stroke-width="1.4"/>
  <path d="M12.5 15.5H17" stroke="#7A88BA" stroke-width="1.5" stroke-linecap="round"/>
  <path d="M14.75 13.25V17.75" stroke="#7A88BA" stroke-width="1.5" stroke-linecap="round"/>
</svg>
