<svg width="960" height="640" viewBox="0 0 960 640" fill="none" xmlns="http://www.w3.org/2000/svg">
  <rect width="960" height="640" rx="32" fill="#0B1020"/>
  <rect x="72" y="72" width="816" height="496" rx="28" fill="#141C33" stroke="#2F3B5C" stroke-width="2"/>
  <path d="M480 140C412 172 340 188 288 196V328C288 412 350 484 480 520C610 484 672 412 672 328V196C620 188 548 172 480 140Z" fill="#1D2746" stroke="#7A88BA" stroke-width="4"/>
  <path d="M416 332L456 372L544 284" stroke="#B8C4F6" stroke-width="12" stroke-linecap="round" stroke-linejoin="round"/>
  <rect x="152" y="368" width="176" height="120" rx="18" fill="#1A2440" stroke="#36446A" stroke-width="2"/>
  <rect x="632" y="368" width="176" height="120" rx="18" fill="#1A2440" stroke="#36446A" stroke-width="2"/>
  <text x="178" y="414" fill="#E6EEFF" font-size="18" font-family="Segoe UI, sans-serif">SOC 2</text>
  <text x="178" y="444" fill="#B7C6F1" font-size="16" font-family="Segoe UI, sans-serif">Type II</text>
  <text x="656" y="414" fill="#E6EEFF" font-size="18" font-family="Segoe UI, sans-serif">ISO 27001</text>
  <text x="656" y="444" fill="#B7C6F1" font-size="16" font-family="Segoe UI, sans-serif">Controls</text>
  <text x="330" y="520" fill="#B7C6F1" font-size="18" font-family="Segoe UI, sans-serif">Evidence integrity • Access control • Audit trails</text>
</svg>
