<svg width="24" height="24" viewBox="0 0 24 24" fill="none" xmlns="http://www.w3.org/2000/svg">
  <path d="M8 12.5C9.7 12.5 11 11.2 11 9.5C11 7.8 9.7 6.5 8 6.5C6.3 6.5 5 7.8 5 9.5C5 11.2 6.3 12.5 8 12.5Z" stroke="#7A88BA" stroke-width="1.6"/>
  <path d="M16.5 11.5C17.9 11.5 19 10.4 19 9C19 7.6 17.9 6.5 16.5 6.5C15.1 6.5 14 7.6 14 9C14 10.4 15.1 11.5 16.5 11.5Z" stroke="#7A88BA" stroke-width="1.6"/>
  <path d="M4 17.5C4.6 15.2 6.6 14 9 14C11.4 14 13.4 15.2 14 17.5" stroke="#7A88BA" stroke-width="1.6" stroke-linecap="round"/>
  <path d="M14.5 17.5C14.9 16.1 16.2 15.3 18 15.3C19.2 15.3 20.2 15.7 21 16.5" stroke="#7A88BA" stroke-width="1.6" stroke-linecap="round"/>
</svg>
